<svg xmlns="http://www.w3.org/2000/svg" viewBox="0 0 400 400" width="128" height="128">
<path fill="#14120B" d="M399.994 254.294C399.994 259.859 399.994 265.419 399.962 270.984C399.935 275.67 399.882 280.357 399.753 285.038C399.475 295.247 398.875 305.542 397.059 315.639C395.217 325.88 392.212 335.409 387.477 344.718C382.822 353.861 376.738 362.233 369.485 369.491C362.227 376.748 353.861 382.828 344.712 387.482C335.409 392.217 325.875 395.222 315.633 397.065C305.537 398.88 295.242 399.48 285.033 399.759C280.346 399.887 275.665 399.941 270.978 399.968C265.413 400.005 259.853 400 254.288 400H145.695C140.13 400 134.571 400 129.005 399.968C124.319 399.941 119.632 399.887 114.951 399.759C104.742 399.48 94.447 398.88 84.35 397.065C74.109 395.222 64.58 392.217 55.271 387.482C46.128 382.828 37.756 376.743 30.499 369.491C23.241 362.233 17.161 353.866 12.507 344.718C7.772 335.414 4.767 325.88 2.925 315.639C1.109 305.542 0.509 295.247 0.23 285.038C0.102 280.352 0.048 275.67 0.021 270.984C0 265.419 0 259.859 0 254.294V145.701C0 140.136 0 134.576 0.032 129.011C0.059 124.324 0.112 119.637 0.241 114.956C0.52 104.747 1.119 94.452 2.935 84.356C4.778 74.115 7.783 64.586 12.518 55.277C17.172 46.133 23.257 37.762 30.509 30.504C37.767 23.246 46.133 17.167 55.282 12.512C64.586 7.777 74.12 4.772 84.361 2.93C94.458 1.114 104.752 0.514 114.961 0.236C119.648 0.107 124.329 0.054 129.016 0.027C134.576 0 140.136 0 145.701 0H254.294C259.859 0 265.419 0 270.984 0.032C275.67 0.059 280.357 0.112 285.038 0.241C295.247 0.52 305.542 1.119 315.639 2.935C325.88 4.778 335.409 7.783 344.718 12.518C353.861 17.172 362.233 23.257 369.491 30.509C376.748 37.767 382.828 46.133 387.482 55.282C392.217 64.586 395.222 74.12 397.065 84.361C398.88 94.458 399.48 104.752 399.759 114.961C399.887 119.648 399.941 124.329 399.968 129.016C400.01 134.581 400 140.141 400 145.706V254.299L399.994 254.294Z"/>
<path fill="#72716D" d="M200.004 200L323.821 271.486C323.061 272.804 321.957 273.929 320.591 274.716L204.863 341.531C201.858 343.266 198.151 343.266 195.146 341.531L79.417 274.716C78.052 273.929 76.948 272.804 76.188 271.486L200.004 200Z"/>
<path fill="#55544F" d="M200.005 57.168V200L76.188 271.486C75.427 270.168 75.004 268.647 75.004 267.072V132.928C75.004 129.774 76.686 126.865 79.418 125.285L195.141 58.47C196.646 57.602 198.323 57.168 199.999 57.168H200.005Z"/>
<path fill="#43413C" d="M323.815 128.515C323.055 127.197 321.951 126.072 320.586 125.285L204.857 58.47C203.357 57.602 201.68 57.168 200.004 57.168V200L323.821 271.486C324.581 270.168 325.005 268.647 325.005 267.072V132.928C325.005 131.348 324.587 129.838 323.821 128.515H323.815Z"/>
<path fill="#D6D5D2" d="M315.156 133.518C315.857 134.728 315.954 136.281 315.156 137.663L202.764 332.323C202.008 333.641 200 333.1 200 331.584V203.311C200 202.287 199.727 201.302 199.229 200.44L315.15 133.512H315.156V133.518Z"/>
<path fill="white" d="M315.155 133.518L199.233 200.445C198.741 199.588 198.023 198.86 197.134 198.345L86.049 134.209C84.731 133.453 85.272 131.445 86.788 131.445H311.566C313.162 131.445 314.459 132.307 315.155 133.518Z"/>
</svg>
